<svg width="34" height="34" viewBox="0 0 34 34" fill="none" xmlns="http://www.w3.org/2000/svg">
<g clip-path="url(#clip0)">
<path d="M24.7917 34H12.0417C11.6507 34 11.3333 33.6827 11.3333 33.2917V28.5812L7.91208 29.6211C7.68258 29.7032 7.39358 29.75 7.08333 29.75C5.52075 29.75 4.25 28.4792 4.25 26.9167V22.6667H1.41667C0.621917 22.6667 0 22.0448 0 21.25C0 20.9837 0.0736667 20.7287 0.219583 20.4935L3.53033 15.2377C4.00208 14.4911 4.25 13.6326 4.25 12.7542C4.25 5.7205 9.9705 0 17 0C24.0295 0 29.75 5.7205 29.75 12.75C29.75 15.3836 28.9482 17.9152 27.4323 20.0742C26.1687 21.8733 25.5 23.9813 25.5 26.1715V33.2917C25.5 33.6827 25.1827 34 24.7917 34ZM12.75 32.5833H24.0833V26.1715C24.0833 23.6881 24.8398 21.2982 26.2721 19.2596C27.6207 17.3414 28.3333 15.0903 28.3333 12.75C28.3333 6.50108 23.2489 1.41667 17 1.41667C10.7511 1.41667 5.66667 6.50108 5.66667 12.75C5.66667 13.8989 5.34367 15.0195 4.72883 15.9927L1.42092 21.2457L4.95833 21.25C5.34933 21.25 5.66667 21.5673 5.66667 21.9583V26.9167C5.66667 27.6972 6.30275 28.3333 7.08333 28.3333C7.23067 28.3333 7.361 28.3135 7.46867 28.2752L11.8348 26.9464C12.0487 26.8841 12.2811 26.9209 12.4624 27.0555C12.6437 27.1887 12.75 27.4012 12.75 27.625V32.5833Z" fill="white"/>
<path d="M20.5417 34.0001C20.4949 34.0001 20.4496 33.9959 20.4014 33.9859C20.0175 33.9094 19.7696 33.5369 19.8461 33.1529L21.6537 24.1118C22.0391 22.1823 21.2882 20.2684 19.6917 19.1166C18.0951 17.9649 16.0395 17.8572 14.3324 18.8347L5.30824 23.9914C4.96824 24.1854 4.53616 24.0664 4.34207 23.7279C4.14799 23.3879 4.26557 22.9558 4.60557 22.7617L13.6297 17.605C15.8256 16.3499 18.4662 16.4873 20.5204 17.9677C22.5732 19.4467 23.5407 21.9074 23.0435 24.3894L21.2358 33.4306C21.1692 33.7678 20.8732 34.0001 20.5417 34.0001Z" fill="white"/>
<path d="M16.2917 34C16.2648 34 16.2393 33.9985 16.2123 33.9957C15.8242 33.9518 15.5437 33.6019 15.5862 33.2137L16.1401 28.227C16.286 26.9166 15.7264 25.6855 14.6455 24.9304C13.566 24.1753 12.2145 24.0776 11.0358 24.6683L5.27285 27.5499C4.92435 27.7255 4.49794 27.5839 4.32227 27.2325C4.1466 26.8826 4.28969 26.4576 4.6396 26.2819L10.4026 23.4004C12.053 22.5745 13.9428 22.7119 15.4558 23.7673C16.9688 24.8228 17.7508 26.5483 17.5483 28.3814L16.9943 33.3681C16.9561 33.7322 16.6487 34 16.2917 34Z" fill="white"/>
</g>
<defs>
<clipPath id="clip0">
<rect width="34" height="34" fill="white"/>
</clipPath>
</defs>
</svg>
