<svg width="34" height="34" viewBox="0 0 34 34" fill="none" xmlns="http://www.w3.org/2000/svg">
<g clip-path="url(#clip0)">
<path d="M11.5033 6.99833C11.4055 6.99833 11.3078 6.9785 11.2157 6.93742C11.0202 6.851 10.8743 6.67958 10.819 6.47275L9.79903 2.66192C9.69844 2.28508 9.92228 1.8955 10.3005 1.79492C10.6816 1.69292 11.0669 1.91817 11.1675 2.29642L11.9679 5.28842C12.6791 4.981 13.4144 4.74017 14.1666 4.56592V0.708333C14.1666 0.317333 14.4839 0 14.8749 0C15.2659 0 15.5833 0.317333 15.5833 0.708333V5.1425C15.5833 5.48392 15.3396 5.77717 15.0024 5.8395C13.9003 6.04067 12.8307 6.40475 11.8277 6.92042C11.7257 6.97142 11.6152 6.99833 11.5033 6.99833Z" fill="white"/>
<path d="M17 34C14.178 34 11.6393 32.2476 10.5358 29.5361L6.12425 18.0483C5.81825 17.1601 5.66667 16.1429 5.66667 15.0025C5.66667 12.8973 6.21492 10.744 7.14284 9.16723L5.69075 3.76832C5.58875 3.39007 5.814 3.0019 6.19084 2.8999C6.57192 2.80073 6.95725 3.02173 7.05925 3.39998L8.568 9.01423C8.59775 9.09215 8.61334 9.17715 8.61334 9.26498V9.2664V9.26782C8.61192 9.26782 8.61334 9.26924 8.61334 9.27207V9.2919C8.60767 9.42224 8.56942 9.55682 8.5 9.66307C7.61317 11.0387 7.08334 13.0333 7.08334 15.0025C7.08334 15.9715 7.21225 16.8569 7.45592 17.5624L11.8533 29.0147C12.7344 31.1766 14.756 32.5833 17 32.5833C19.2483 32.5833 21.2642 31.178 22.1368 29.0048L26.5526 17.5242C27.3218 15.2646 26.8685 11.7923 25.5113 9.64324C25.4051 9.47607 25.3739 9.27348 25.4249 9.08223L26.9408 3.4014C27.0428 3.02315 27.4352 2.80215 27.8078 2.8999C28.186 3.00048 28.4098 3.38865 28.3093 3.7669L26.8713 9.15732C28.3291 11.6719 28.7683 15.4133 27.8843 18.0087L23.4558 29.5247C22.3621 32.2462 19.8305 34 17 34Z" fill="white"/>
<path d="M22.4966 6.99833C22.3847 6.99833 22.2742 6.97142 22.1722 6.92042C21.1749 6.409 20.1067 6.04492 18.996 5.8395C18.6603 5.77717 18.4166 5.48392 18.4166 5.1425V0.708333C18.4166 0.317333 18.734 0 19.125 0C19.516 0 19.8333 0.317333 19.8333 0.708333V4.56733C20.5884 4.743 21.3236 4.98383 22.032 5.28842L22.8324 2.29642C22.933 1.91817 23.3268 1.69433 23.6994 1.79492C24.0776 1.8955 24.3015 2.28508 24.2009 2.66192L23.1809 6.47275C23.1256 6.67958 22.9797 6.851 22.7842 6.93742C22.6921 6.9785 22.5944 6.99833 22.4966 6.99833Z" fill="white"/>
<path d="M21.9583 31.1667C21.6637 31.1667 21.3888 30.9825 21.2883 30.6893C18.7765 23.3779 13.8295 18.659 6.1625 16.2591C5.78992 16.1415 5.58167 15.7449 5.69783 15.3723C5.81542 14.9983 6.20783 14.7886 6.58467 14.9076C14.5973 17.4151 19.9948 22.569 22.6256 30.2275C22.7531 30.5972 22.5562 31.001 22.1864 31.127C22.1128 31.154 22.0348 31.1667 21.9583 31.1667Z" fill="white"/>
<path d="M18.0625 23.7291C18.054 23.7291 18.0441 23.7291 18.0341 23.7291C17.6431 23.7149 17.3386 23.3849 17.3541 22.9939C17.5596 17.5765 20.6777 13.437 26.6192 10.6901C26.9762 10.5272 27.3955 10.6816 27.5598 11.0358C27.7242 11.3914 27.5683 11.8121 27.2142 11.9765C21.7189 14.5151 18.9564 18.1375 18.7708 23.0477C18.7552 23.4302 18.4422 23.7291 18.0625 23.7291Z" fill="white"/>
</g>
<defs>
<clipPath id="clip0">
<rect width="34" height="34" fill="white"/>
</clipPath>
</defs>
</svg>
