<svg width="34" height="34" viewBox="0 0 34 34" fill="none" xmlns="http://www.w3.org/2000/svg">
<g clip-path="url(#clip0)">
<path d="M19 23.4441C19.09 23.294 19.0946 23.1077 19.012 22.9533C18.1752 21.3883 17.262 21.0598 16.6432 21.0598C16.0244 21.0598 15.1111 21.3883 14.2744 22.9533C14.1918 23.1076 14.1964 23.294 14.2864 23.4441C14.3764 23.5943 14.5385 23.6862 14.7136 23.6862H18.5729C18.7479 23.6863 18.91 23.5943 19 23.4441ZM15.629 22.6902C15.9651 22.2765 16.3132 22.056 16.6432 22.056C16.9732 22.056 17.3213 22.2765 17.6574 22.6902H15.629Z" fill="white"/>
<path d="M24.1183 29.8196L22.2678 28.9785C22.217 28.943 22.1614 28.9184 22.104 28.9041L20.4471 28.151C20.0558 27.9731 19.8029 27.5804 19.8029 27.1506V25.6217C20.0994 25.4302 20.3816 25.2109 20.6455 24.9635C21.576 24.0911 22.1867 22.9411 22.3897 21.716C22.6559 22.0085 22.9183 22.3142 23.1745 22.6344C23.2708 22.7549 23.4151 22.8213 23.5635 22.8213C23.6186 22.8213 23.6742 22.8122 23.7282 22.7932C23.9279 22.7233 24.0615 22.5348 24.0615 22.3233V18.0647C24.0615 15.6188 22.8713 13.4458 21.0399 12.0937C20.6109 10.0116 18.7881 8.51721 16.6433 8.51721C14.4993 8.51721 12.6758 10.0119 12.2467 12.0936C10.4153 13.4457 9.22504 15.6186 9.22504 18.0646C9.22504 18.9566 9.42161 19.8127 9.80929 20.6092C9.81261 20.6161 9.81659 20.6224 9.82024 20.6291C9.97444 21.1594 10.4017 21.5748 10.9399 21.7098C11.2543 23.3366 12.1967 24.7183 13.4837 25.5834V27.1504C13.4837 27.5803 13.2308 27.973 12.8395 28.1508L9.16833 29.8196C8.23274 30.2448 7.62817 31.1837 7.62817 32.2114V33.502C7.62817 33.777 7.85117 34 8.12622 34C8.40128 34 8.62427 33.777 8.62427 33.502V32.2115C8.62427 31.5734 8.9996 30.9904 9.58052 30.7264L11.1782 30.0002C12.5829 31.5303 14.5591 32.403 16.6434 32.403C18.7338 32.403 20.7041 31.532 22.1089 30.0003L23.7062 30.7263C24.287 30.9904 24.6624 31.5733 24.6624 32.2114V33.502C24.6624 33.777 24.8854 34 25.1604 34C25.4355 34 25.6585 33.777 25.6585 33.502V32.2115C25.6584 31.1838 25.0538 30.2449 24.1183 29.8196ZM16.6432 9.51324C17.9469 9.51324 19.0974 10.2227 19.6979 11.3049C18.7658 10.8821 17.7316 10.6465 16.6432 10.6465C15.5549 10.6465 14.5207 10.8821 13.5887 11.3049C14.1894 10.2228 15.3401 9.51324 16.6432 9.51324ZM11.8654 21.195C11.8335 20.9465 11.6219 20.7605 11.3715 20.7605H11.32C11.0076 20.7605 10.7535 20.5063 10.7535 20.194C10.7535 19.8816 11.0077 19.6274 11.32 19.6274H11.4801C11.6895 19.6274 11.8766 19.4964 11.9482 19.2996C12.0947 18.8969 12.3554 18.5474 12.7023 18.2889C13.2762 17.8612 14.0561 17.1897 14.6364 16.3511C14.6976 16.3759 14.7602 16.4014 14.825 16.4283C14.8875 16.4544 14.9523 16.4667 15.0161 16.4667C15.2112 16.4667 15.3965 16.3513 15.4761 16.1599C15.5818 15.906 15.4617 15.6145 15.2077 15.5087C14.2272 15.1006 13.6063 14.9296 13.5804 14.9225C13.3151 14.8502 13.0417 15.0065 12.9691 15.2717C12.8966 15.5368 13.0528 15.8107 13.3179 15.8834C13.3205 15.8841 13.4452 15.9188 13.666 15.992C13.1813 16.6255 12.5701 17.145 12.1069 17.4901C11.6974 17.7954 11.3703 18.1888 11.1478 18.6406C10.8307 18.6755 10.5429 18.8068 10.3117 19.0029C10.2516 18.6968 10.2211 18.3835 10.2211 18.0646C10.2211 14.5234 13.102 11.6425 16.6432 11.6425C20.1844 11.6425 23.0653 14.5235 23.0653 18.0646V20.9782C21.0209 18.7524 18.7659 17.2925 17.1419 16.4265C16.8993 16.2971 16.5975 16.3889 16.4681 16.6316C16.3387 16.8743 16.4305 17.176 16.6732 17.3054C17.3522 17.6674 18.1465 18.1383 18.9884 18.7306L18.0174 19.2161C17.8487 19.3005 17.7421 19.4729 17.7421 19.6616C17.7421 19.8502 17.8487 20.0227 18.0174 20.107L19.0821 20.6394C19.1536 20.6751 19.2295 20.692 19.3044 20.692C19.4871 20.692 19.663 20.5911 19.7502 20.4166C19.8733 20.1706 19.7735 19.8714 19.5275 19.7484L19.3538 19.6616L19.5275 19.5747C19.6437 19.5166 19.7267 19.4191 19.7696 19.3066C20.3306 19.7399 20.903 20.2266 21.4684 20.7697V20.8149C21.4684 22.0933 20.9201 23.3404 19.9642 24.2367C18.9735 25.1654 17.6802 25.6285 16.3223 25.541C14.0449 25.394 12.1706 23.5663 11.8654 21.195ZM16.6432 31.407C14.9491 31.407 13.3372 30.741 12.1399 29.563L13.2515 29.0578C13.9975 28.7187 14.4796 27.97 14.4796 27.1505V26.1187C15.0365 26.35 15.6345 26.4948 16.2581 26.5351C16.389 26.5435 16.5192 26.5477 16.6491 26.5477C17.3993 26.5477 18.1279 26.4071 18.8067 26.1365V27.1505C18.8067 27.97 19.2887 28.7186 20.0348 29.0578L21.1466 29.5631C19.9498 30.7419 18.3424 31.407 16.6432 31.407Z" fill="white"/>
<path d="M15.5442 19.6616C15.5442 19.4729 15.4376 19.3005 15.2689 19.2161L14.2043 18.6838C13.9583 18.5608 13.6591 18.6605 13.5361 18.9065C13.4131 19.1526 13.5128 19.4517 13.7588 19.5747L13.9326 19.6616L13.7588 19.7484C13.5128 19.8714 13.4131 20.1706 13.5361 20.4166C13.6234 20.5911 13.7992 20.6921 13.982 20.692C14.0568 20.692 14.1328 20.6751 14.2043 20.6394L15.2689 20.107C15.4376 20.0227 15.5442 19.8502 15.5442 19.6616Z" fill="white"/>
<path d="M15.6129 6.88586C15.6129 7.16092 15.8358 7.38391 16.1109 7.38391C16.386 7.38391 16.6089 7.16092 16.6089 6.88586C16.6089 6.57442 16.7343 6.4353 16.9952 6.17479C17.2815 5.88877 17.6736 5.49711 17.6736 4.75894C17.6736 4.0201 17.2816 3.62797 16.9955 3.34163C16.7345 3.08039 16.6089 2.941 16.6089 2.62849C16.6089 2.31598 16.7345 2.1766 16.9955 1.91536C17.2817 1.62901 17.6736 1.23688 17.6736 0.498047C17.6736 0.222992 17.4506 0 17.1755 0C16.9005 0 16.6775 0.222992 16.6775 0.498047C16.6775 0.810555 16.552 0.950008 16.2909 1.21118C16.0047 1.49753 15.6129 1.88966 15.6129 2.62843C15.6129 3.36726 16.0048 3.75939 16.2909 4.04573C16.552 4.30698 16.6775 4.44636 16.6775 4.75887C16.6775 5.07032 16.5521 5.20944 16.2913 5.47002C16.0049 5.75603 15.6129 6.14769 15.6129 6.88586Z" fill="white"/>
<path d="M10.3813 6.30035C10.7213 6.40056 10.8766 6.45501 10.9966 6.69493C11.1162 6.93406 11.0664 7.09065 10.9426 7.42215C10.8031 7.79535 10.6121 8.30648 10.9307 8.94352C11.018 9.11803 11.1938 9.2189 11.3765 9.2189C11.4514 9.2189 11.5274 9.20197 11.5989 9.16624C11.8449 9.04326 11.9447 8.7441 11.8216 8.49806C11.7021 8.25893 11.7518 8.10235 11.8757 7.77085C12.0151 7.39764 12.2061 6.88652 11.8875 6.24948C11.5688 5.61191 11.0452 5.45759 10.663 5.34489C10.323 5.24469 10.1677 5.19023 10.0477 4.95031C9.92769 4.71032 9.97737 4.55333 10.1012 4.22123C10.2404 3.84777 10.4311 3.33637 10.1123 2.69881C9.98932 2.45277 9.69022 2.35296 9.44412 2.47608C9.19809 2.59906 9.09834 2.89822 9.2214 3.14426C9.34139 3.38425 9.29172 3.54117 9.16787 3.87327C9.02862 4.24673 8.83797 4.7582 9.15678 5.39576C9.47553 6.03333 9.99908 6.18772 10.3813 6.30035Z" fill="white"/>
<path d="M7.73021 11.9674C7.65584 12.2965 7.53139 12.8472 7.96994 13.242C8.0649 13.3274 8.18344 13.3694 8.30164 13.3694C8.43744 13.3694 8.57284 13.3139 8.67139 13.205C8.85162 13.0059 8.83999 12.6999 8.64921 12.5137C8.64283 12.4477 8.67936 12.2861 8.7018 12.1869C8.77618 11.8578 8.90062 11.307 8.46201 10.9123C8.02333 10.5174 7.48843 10.6986 7.16895 10.8069C7.08289 10.836 6.94875 10.8815 6.87364 10.8914C6.87557 10.8157 6.90671 10.6775 6.92663 10.5888C7.00074 10.2596 7.12479 9.7088 6.68604 9.31395C6.48218 9.13054 6.16994 9.1478 5.98566 9.35087C5.80523 9.54969 5.81685 9.85603 6.00724 10.0426C6.01381 10.1084 5.97729 10.2705 5.95491 10.37C5.8808 10.6992 5.75676 11.25 6.1955 11.6449C6.63425 12.0399 7.16908 11.8585 7.48863 11.7503C7.57449 11.7212 7.7083 11.6759 7.78341 11.6659C7.78122 11.7417 7.75014 11.8792 7.73021 11.9674Z" fill="white"/>
<path d="M20.7353 8.69021C20.8068 8.726 20.8828 8.74287 20.9576 8.74287C21.1403 8.74287 21.3162 8.64193 21.4035 8.46748C21.523 8.22842 21.6782 8.17417 22.0177 8.07443C22.3999 7.96207 22.9234 7.8082 23.242 7.17117C23.5608 6.53353 23.3701 6.02214 23.2309 5.64867C23.1071 5.31657 23.0574 5.15966 23.1774 4.91966C23.2974 4.67967 23.4528 4.62522 23.7928 4.52501C24.175 4.41232 24.6985 4.25799 25.0173 3.62043C25.1403 3.37439 25.0406 3.07523 24.7946 2.95225C24.5485 2.82919 24.2494 2.92894 24.1264 3.17497C24.0064 3.41496 23.8511 3.46935 23.5111 3.56956C23.1288 3.68225 22.6052 3.83658 22.2865 4.47421C21.9676 5.11178 22.1583 5.62317 22.2975 5.99664C22.4213 6.32874 22.4711 6.48566 22.3511 6.72571C22.2315 6.96478 22.0763 7.01903 21.7368 7.11877C21.3546 7.23113 20.8311 7.385 20.5125 8.0221C20.3895 8.26807 20.4892 8.56723 20.7353 8.69021Z" fill="white"/>
<path d="M28.0157 10.1454C27.8369 9.94513 27.531 9.92448 27.3255 10.0942C27.2593 10.0939 27.102 10.0406 27.0054 10.0078C26.6858 9.89958 26.151 9.71842 25.7123 10.1133C25.2735 10.5082 25.3976 11.059 25.4717 11.3881C25.4916 11.4766 25.5226 11.6144 25.5247 11.6902C25.4495 11.68 25.3161 11.6347 25.2304 11.6056C24.9109 11.4971 24.3762 11.3156 23.9378 11.7103C23.7337 11.894 23.7178 12.2072 23.9008 12.4118C24.08 12.612 24.3855 12.6325 24.5907 12.4623C24.6571 12.4629 24.8138 12.5162 24.9102 12.5488C25.0816 12.607 25.3149 12.6862 25.562 12.6862C25.7756 12.6862 25.9996 12.6271 26.2029 12.4441C26.6416 12.0493 26.5176 11.4984 26.4435 11.1693C26.4235 11.0807 26.3924 10.9424 26.3905 10.8667C26.4656 10.8766 26.5997 10.922 26.6858 10.9512C27.0053 11.0594 27.5401 11.2406 27.9789 10.8457C28.1827 10.6624 28.1983 10.35 28.0157 10.1454Z" fill="white"/>
</g>
<defs>
<clipPath id="clip0">
<rect width="34" height="34" fill="white"/>
</clipPath>
</defs>
</svg>
