<svg width="34" height="34" viewBox="0 0 34 34" fill="none" xmlns="http://www.w3.org/2000/svg">
<g clip-path="url(#clip0)">
<path d="M20.7514 25.5C20.7301 25.5 20.7103 25.5 20.689 25.5C19.1434 25.476 17.8614 24.5835 17.3924 23.2787C17.3089 23.0464 17.0709 23.028 17 23.028C16.9292 23.028 16.6912 23.0464 16.6076 23.2787C16.1274 24.6146 14.8821 25.4675 13.4839 25.4675H13.2529C11.5204 25.4675 10.0357 24.2803 9.72119 22.6455L9.35144 20.7188C9.16869 19.7597 8.71677 18.8601 8.04527 18.1192L7.4871 17.5015C6.3141 16.2039 5.66669 14.545 5.66669 12.8308V11.1747C5.66669 10.0754 6.11577 9.04262 6.93177 8.26912C8.53685 6.74337 11.3291 6.73771 12.937 8.26346L13.668 8.95762C15.4204 10.6194 18.5824 10.6194 20.332 8.95762L21.063 8.26487C21.8677 7.50271 22.9373 7.08337 24.0791 7.08337C26.4251 7.08337 28.3334 8.91371 28.3334 11.162V13.7984C28.3334 14.8935 27.9211 15.9517 27.1717 16.779L25.9619 18.115C25.2861 18.8601 24.8328 19.764 24.65 20.7301L24.2831 22.671C23.9686 24.3185 22.4896 25.5 20.7514 25.5ZM17 21.6099C17.7877 21.6099 18.4649 22.076 18.7241 22.797C18.9947 23.5521 19.7498 24.0678 20.6026 24.0805H20.6494C21.8096 24.0805 22.7049 23.3807 22.8891 22.4046L23.256 20.4638C23.4884 19.2412 24.0593 18.1008 24.9093 17.1615L26.1191 15.8256C26.6334 15.2618 26.9167 14.5421 26.9167 13.7984V11.162C26.9167 9.69429 25.6431 8.50004 24.0791 8.50004C23.3028 8.50004 22.5774 8.78196 22.0391 9.29337L21.3067 9.98612C20.1549 11.0784 18.6249 11.6819 17 11.6819C15.3765 11.6819 13.8465 11.0798 12.6919 9.98612L11.9609 9.29196C10.8885 8.27196 8.9746 8.28187 7.90644 9.29621C7.37519 9.79912 7.08335 10.4664 7.08335 11.1747V12.8308C7.08335 14.1922 7.60044 15.514 8.53827 16.551L9.09785 17.1686C9.9436 18.1036 10.5131 19.2384 10.7454 20.451L11.1152 22.3777C11.3008 23.3467 12.2004 24.0508 13.2544 24.0508H13.4839C14.2857 24.0508 14.9954 23.5748 15.2504 22.8665C15.5338 22.076 16.2109 21.6099 17 21.6099Z" fill="white"/>
<path d="M21.25 9.5625H19.8333V2.83617C18.3402 3.71733 15.6598 3.71733 14.1667 2.83617V9.5625H12.75V0.708333C12.75 0.317333 13.0673 0 13.4583 0C13.8493 0 14.1667 0.317333 14.1667 0.708333C14.1667 1.377 15.3779 2.125 17 2.125C18.6221 2.125 19.8333 1.377 19.8333 0.708333C19.8333 0.317333 20.1507 0 20.5417 0C20.9327 0 21.25 0.317333 21.25 0.708333V9.5625Z" fill="white"/>
<path d="M17 7.7917C14.6172 7.7917 12.75 6.54787 12.75 4.95837H14.1667C14.1667 5.62704 15.3779 6.37504 17 6.37504C18.6221 6.37504 19.8333 5.62704 19.8333 4.95837H21.25C21.25 6.54787 19.3828 7.7917 17 7.7917Z" fill="white"/>
<path d="M17 29.75C14.6172 29.75 12.75 28.5061 12.75 26.9166H14.1667C14.1667 27.5853 15.3779 28.3333 17 28.3333C18.6221 28.3333 19.8333 27.5853 19.8333 26.9166H21.25C21.25 28.5061 19.3828 29.75 17 29.75Z" fill="white"/>
<path d="M17 33.9999C14.6172 33.9999 12.75 32.7561 12.75 31.1666V24.7916H14.1667V31.1666C14.1667 31.8353 15.3779 32.5833 17 32.5833C18.6221 32.5833 19.8333 31.8353 19.8333 31.1666V24.7916H21.25V31.1666C21.25 32.7561 19.3828 33.9999 17 33.9999Z" fill="white"/>
<path d="M14.875 19.8333C14.484 19.8333 14.1667 19.516 14.1667 19.125C14.1667 18.734 13.8493 18.4167 13.4583 18.4167C13.0673 18.4167 12.75 18.0993 12.75 17.7083C12.75 17.3173 13.0673 17 13.4583 17C14.6299 17 15.5833 17.9534 15.5833 19.125C15.5833 19.516 15.266 19.8333 14.875 19.8333Z" fill="white"/>
<path d="M19.125 19.8333C18.734 19.8333 18.4166 19.516 18.4166 19.125C18.4166 17.9534 19.37 17 20.5416 17C20.9326 17 21.25 17.3173 21.25 17.7083C21.25 18.0993 20.9326 18.4167 20.5416 18.4167C20.1506 18.4167 19.8333 18.734 19.8333 19.125C19.8333 19.516 19.516 19.8333 19.125 19.8333Z" fill="white"/>
<path d="M12.0417 14.1667C10.8701 14.1667 9.91669 13.2133 9.91669 12.0417C9.91669 11.6507 10.234 11.3334 10.625 11.3334C11.016 11.3334 11.3334 11.6507 11.3334 12.0417C11.3334 12.4327 11.6507 12.75 12.0417 12.75C12.4327 12.75 12.75 13.0674 12.75 13.4584C12.75 13.8494 12.4327 14.1667 12.0417 14.1667Z" fill="white"/>
<path d="M21.9583 14.1667C21.5673 14.1667 21.25 13.8494 21.25 13.4584C21.25 13.0674 21.5673 12.75 21.9583 12.75C22.3493 12.75 22.6667 12.4327 22.6667 12.0417C22.6667 11.6507 22.984 11.3334 23.375 11.3334C23.766 11.3334 24.0833 11.6507 24.0833 12.0417C24.0833 13.2133 23.1299 14.1667 21.9583 14.1667Z" fill="white"/>
</g>
<defs>
<clipPath id="clip0">
<rect width="34" height="34" fill="white"/>
</clipPath>
</defs>
</svg>
