<svg width="34" height="34" viewBox="0 0 34 34" fill="none" xmlns="http://www.w3.org/2000/svg">
<g clip-path="url(#clip0)">
<path d="M17.7084 19.8333C17.6248 19.8333 17.5412 19.8191 17.459 19.7879C17.0921 19.6505 16.9065 19.2425 17.0454 18.8756C19.2129 13.0928 17.4704 5.93861 15.6273 0.953358C15.4913 0.586441 15.6783 0.179858 16.0452 0.0438577C16.4149 -0.0935589 16.8201 0.0948577 16.9561 0.461774C18.8828 5.67227 20.6933 13.182 18.3714 19.3729C18.2651 19.6576 17.9945 19.8333 17.7084 19.8333Z" fill="white"/>
<path d="M18.2325 18.1191C17.9845 18.1191 17.7437 17.9888 17.6134 17.7565C17.4221 17.4151 17.544 16.9844 17.8854 16.7931C22.1212 14.4202 28.5529 13.9655 33.5225 15.6938C33.8923 15.8213 34.0864 16.2251 33.9603 16.5948C33.8314 16.9646 33.429 17.1615 33.0579 17.0311C28.4409 15.4303 22.4867 15.8383 18.5767 18.0285C18.469 18.0908 18.35 18.1191 18.2325 18.1191Z" fill="white"/>
<path d="M27.4437 29.7557C20.8023 29.7557 15.0082 27.9225 13.6552 27.4592C13.0064 27.2397 12.3207 27.1419 11.6138 27.1844C9.50724 27.2779 8.42065 26.5072 7.87807 25.8542C7.33974 25.2053 6.79432 24.0082 7.25757 21.9852C7.62449 20.4127 7.64432 18.7836 7.62165 17.5383C7.5664 13.5575 8.41924 6.10582 9.94215 0.52274C10.0456 0.145906 10.4366 -0.0765102 10.812 0.0254898C11.1874 0.12749 11.4112 0.517073 11.3078 0.893907C9.8189 6.35799 8.98449 13.6354 9.03832 17.5142C9.06382 18.8374 9.03974 20.5813 8.63882 22.3026C8.45465 23.1044 8.36257 24.2179 8.96749 24.9475C9.5809 25.6856 10.7057 25.7975 11.5458 25.7692C12.4171 25.7238 13.2883 25.8386 14.1114 26.1177C15.1484 26.4718 24.4998 29.529 33.1528 27.8077C33.5424 27.727 33.9093 27.9806 33.9858 28.3645C34.0623 28.7484 33.813 29.121 33.4291 29.1961C31.4231 29.597 29.3958 29.7557 27.4437 29.7557Z" fill="white"/>
<path d="M2.12502 31.1667C1.9366 31.1667 1.7496 31.0916 1.61077 30.9442C1.34302 30.6595 1.35435 30.2118 1.6391 29.9427L3.13935 28.526C3.4241 28.2568 3.87177 28.2696 4.14093 28.5543C4.40868 28.8391 4.39735 29.2867 4.1126 29.5559L2.61235 30.9726C2.47493 31.1029 2.29927 31.1667 2.12502 31.1667Z" fill="white"/>
<path d="M7.79165 34C7.40065 34 7.08331 33.6827 7.08331 33.2917V30.4583C7.08331 30.0673 7.40065 29.75 7.79165 29.75C8.18265 29.75 8.49998 30.0673 8.49998 30.4583V33.2917C8.49998 33.6827 8.18265 34 7.79165 34Z" fill="white"/>
<path d="M3.54167 25.5H0.708333C0.317333 25.5 0 25.1827 0 24.7917C0 24.4007 0.317333 24.0834 0.708333 24.0834H3.54167C3.93267 24.0834 4.25 24.4007 4.25 24.7917C4.25 25.1827 3.93267 25.5 3.54167 25.5Z" fill="white"/>
</g>
<defs>
<clipPath id="clip0">
<rect width="34" height="34" fill="white"/>
</clipPath>
</defs>
</svg>
