<svg width="34" height="34" viewBox="0 0 34 34" fill="none" xmlns="http://www.w3.org/2000/svg">
<g clip-path="url(#clip0)">
<path d="M20.5417 34H7.67128C6.10445 34 4.70053 32.9517 4.25995 31.4528C3.03453 27.2807 2.99061 22.8579 4.13528 18.6632L4.2897 18.0993C5.59445 13.3138 5.23745 8.16708 3.28386 3.60825L3.00761 2.96225C2.72428 2.3035 2.79228 1.55267 3.18611 0.954833C3.57995 0.357 4.24436 0 4.95978 0H19.5939C21.2642 0 22.6823 1.1475 23.0449 2.78942C24.1188 7.66275 26.5299 11.3928 30.2119 13.8734C30.8097 14.2772 31.1667 14.9345 31.1667 15.6357V16.2917C31.1667 20.638 28.1393 24.2902 24.0834 25.2521V30.4583C24.0834 32.4105 22.4939 34 20.5417 34ZM4.95978 1.41667C4.71753 1.41667 4.5022 1.53283 4.36903 1.73542C4.23586 1.938 4.2132 2.18167 4.30953 2.40408L4.58578 3.04867C6.66545 7.89933 7.04653 13.3776 5.65678 18.4705L5.50236 19.0343C4.42711 22.9769 4.4682 27.132 5.61853 31.0519C5.88345 31.9543 6.72778 32.5833 7.67128 32.5833H20.5417C21.7133 32.5833 22.6667 31.6299 22.6667 30.4583V25.4731C22.4329 25.4915 22.1964 25.5 21.9584 25.5C16.881 25.5 12.75 21.369 12.75 16.2917V14.875C12.75 14.484 13.0674 14.1667 13.4584 14.1667C13.8494 14.1667 14.1667 14.484 14.1667 14.875V16.2917C14.1667 20.5884 17.6616 24.0833 21.9584 24.0833C26.2551 24.0833 29.75 20.5884 29.75 16.2917V15.6357C29.75 15.4077 29.6268 15.1881 29.4199 15.0478C25.4264 12.3562 22.8154 8.33425 21.6609 3.094C21.4427 2.10658 20.5941 1.41667 19.5939 1.41667H4.95978Z" fill="white"/>
<path d="M27.1788 16.8484C24.7648 16.8484 22.8253 15.8553 21.386 13.8748C21.1551 13.5589 21.2259 13.1155 21.5418 12.886C21.8578 12.6565 22.3012 12.7259 22.5307 13.0418C24.2378 15.3878 26.7608 15.9984 30.2458 14.9076C30.6213 14.79 31.0165 14.9983 31.1327 15.3723C31.2503 15.7448 31.042 16.1429 30.668 16.2591C29.4143 16.6515 28.2498 16.8484 27.1788 16.8484Z" fill="white"/>
<path d="M20.927 17.3952C20.3391 17.3952 19.6577 17.262 18.8644 16.9503C18.5003 16.8072 18.3218 16.395 18.4649 16.0323C18.6094 15.6682 19.0188 15.4897 19.3829 15.6328C21.556 16.4899 22.2842 15.5974 22.7092 14.61C22.8636 14.2501 23.283 14.0872 23.64 14.2388C23.9998 14.3932 24.1655 14.8097 24.0111 15.1696C23.5365 16.2732 22.6341 17.3952 20.927 17.3952Z" fill="white"/>
<path d="M23.375 22.6666C23.3382 22.6666 23.2999 22.6638 23.2602 22.6581C22.8749 22.5958 22.6114 22.2317 22.6737 21.845C23.1908 18.6603 25.738 16.3256 30.2444 14.9076C30.6184 14.7914 31.0151 14.9968 31.1327 15.3708C31.2502 15.7434 31.0434 16.1415 30.6694 16.2591C26.6602 17.5213 24.5027 19.4225 24.0734 22.0716C24.0182 22.4201 23.7178 22.6666 23.375 22.6666Z" fill="white"/>
</g>
<defs>
<clipPath id="clip0">
<rect width="34" height="34" fill="white"/>
</clipPath>
</defs>
</svg>
