<svg width="34" height="34" viewBox="0 0 34 34" fill="none" xmlns="http://www.w3.org/2000/svg">
<g clip-path="url(#clip0)">
<path d="M17 13.4583C16.609 13.4583 16.2917 13.141 16.2917 12.75V0.769246C16.2917 0.378246 16.609 0.0609131 17 0.0609131C17.391 0.0609131 17.7083 0.378246 17.7083 0.769246V12.75C17.7083 13.141 17.391 13.4583 17 13.4583Z" fill="white"/>
<path d="M24.7916 19.8334C24.6344 19.8334 24.4743 19.781 24.344 19.6733L17 13.6652L9.65598 19.6733C9.35423 19.9184 8.90798 19.8759 8.66006 19.5727C8.41214 19.271 8.45606 18.8247 8.75923 18.5754L16.5509 12.2004C16.8116 11.9879 17.187 11.9879 17.4476 12.2004L25.2393 18.5754C25.5425 18.8233 25.5864 19.2696 25.3385 19.5727C25.1996 19.7456 24.9971 19.8334 24.7916 19.8334Z" fill="white"/>
<path d="M30.4683 34C30.1226 34 29.7741 33.949 29.4327 33.8456L24.3639 32.3028C21.6538 31.4783 19.8334 29.0105 19.8334 26.1616V12.0658C19.8334 10.8418 20.4468 9.71693 21.4739 9.0596C22.4939 8.41076 23.7533 8.32151 24.854 8.82726C30.4102 11.3957 34 17.0298 34 23.1838V30.4371C34 31.5803 33.4745 32.6244 32.5593 33.303C31.9388 33.7634 31.2106 34 30.4683 34ZM29.8435 32.4898C30.4853 32.6853 31.1695 32.5692 31.715 32.1654C32.266 31.7574 32.5834 31.127 32.5834 30.4371V23.1838C32.5834 17.5808 29.3151 12.4497 24.259 10.1136C23.596 9.80618 22.8594 9.85718 22.2375 10.2524C21.6198 10.6491 21.25 11.3263 21.25 12.0658V26.163C21.25 28.3829 22.6667 30.3068 24.7747 30.9471L29.8435 32.4898Z" fill="white"/>
<path d="M3.53175 34C2.78942 34 2.06125 33.762 1.43933 33.303C0.525583 32.6244 0 31.5803 0 30.4371V23.1838C0 17.0298 3.58983 11.3957 9.146 8.82726C10.2468 8.32151 11.5076 8.41076 12.5262 9.0596C13.5533 9.71693 14.1667 10.8403 14.1667 12.0658V26.163C14.1667 29.0119 12.3463 31.4783 9.63758 32.3028L4.56875 33.8456C4.22592 33.949 3.87742 34 3.53175 34ZM4.36192 33.1684H4.37608H4.36192ZM10.6307 9.91526C10.3303 9.91526 10.0286 9.98043 9.741 10.115C4.68492 12.4511 1.41667 17.5808 1.41667 23.1838V30.4371C1.41667 31.127 1.734 31.7574 2.28367 32.1654C2.82908 32.5692 3.5105 32.6853 4.15508 32.4898L9.22392 30.9471C11.3333 30.3053 12.75 28.3829 12.75 26.1616V12.0658C12.75 11.3277 12.3803 10.6491 11.7626 10.2538C11.4113 10.0286 11.0217 9.91526 10.6307 9.91526Z" fill="white"/>
<path d="M7.7931 26.9167C7.74635 26.9167 7.6996 26.9125 7.65285 26.9026C7.26894 26.8261 7.0196 26.4535 7.0961 26.0696L8.43768 19.3588L5.8721 16.7932C5.59585 16.517 5.59585 16.0679 5.8721 15.7917C6.14835 15.5154 6.59744 15.5154 6.87369 15.7917L9.70701 18.625C9.87418 18.7922 9.94785 19.033 9.9011 19.2653L8.48443 26.3487C8.41785 26.6844 8.12318 26.9167 7.7931 26.9167Z" fill="white"/>
<path d="M4.95833 22.6666C4.73025 22.6666 4.50641 22.5561 4.369 22.3507C4.15225 22.0249 4.24008 21.5857 4.56591 21.3689L8.81591 18.5356C9.13891 18.3189 9.57808 18.4053 9.79766 18.7325C10.0144 19.0584 9.92658 19.4975 9.60074 19.7143L5.35075 22.5476C5.23033 22.6284 5.09433 22.6666 4.95833 22.6666Z" fill="white"/>
<path d="M26.2069 26.9166C25.8768 26.9166 25.5822 26.6842 25.5142 26.3471L24.0975 19.2637C24.0507 19.0314 24.1244 18.792 24.2916 18.6234L27.1249 15.7901C27.4012 15.5138 27.8502 15.5138 28.1265 15.7901C28.4027 16.0663 28.4027 16.5154 28.1265 16.7917L25.5609 19.3572L26.9025 26.068C26.9804 26.4519 26.7311 26.8245 26.3457 26.901C26.3004 26.9123 26.2537 26.9166 26.2069 26.9166Z" fill="white"/>
<path d="M29.0417 22.6667C28.9057 22.6667 28.7697 22.6285 28.6493 22.5477L24.3993 19.7144C24.0749 19.4976 23.9856 19.0585 24.2024 18.7326C24.4205 18.4068 24.8625 18.3204 25.1841 18.5357L29.4341 21.3691C29.7585 21.5858 29.8478 22.025 29.631 22.3508C29.4936 22.5562 29.2698 22.6667 29.0417 22.6667Z" fill="white"/>
</g>
<defs>
<clipPath id="clip0">
<rect width="34" height="34" fill="white"/>
</clipPath>
</defs>
</svg>
