<svg width="34" height="34" viewBox="0 0 34 34" fill="none" xmlns="http://www.w3.org/2000/svg">
<path d="M26.9123 0.774004C26.973 0.412358 26.729 0.0699038 26.3672 0.009209C26.0059 -0.0512866 25.6631 0.192622 25.6024 0.554267C24.9531 4.42506 25.4302 8.37553 26.982 11.9788C27.593 13.3973 28.0796 14.8549 28.4441 16.3359H19.9967C19.6299 16.3359 19.3326 16.6332 19.3326 16.9999C19.3326 17.3666 19.6299 17.664 19.9967 17.664H28.7365C28.845 18.2214 28.9372 18.7812 29.0113 19.3432C26.9125 20.0722 24.9485 21.1085 23.1668 22.4298C21.2616 23.8426 19.6059 25.5522 18.2396 27.5141H15.7602C14.3939 25.5522 12.7381 23.8425 10.8331 22.4298C9.05135 21.1085 7.0874 20.0722 4.98858 19.3432C5.06269 18.7813 5.15479 18.2214 5.26337 17.664H14.02C14.3868 17.664 14.6841 17.3666 14.6841 16.9999C14.6841 16.6332 14.3868 16.3359 14.02 16.3359H5.55575C5.92032 14.8548 6.40701 13.3972 7.01787 11.9787C8.56971 8.37553 9.04677 4.42499 8.39745 0.554267C8.33676 0.192622 7.99424 -0.0512866 7.63266 0.009209C7.27095 0.0699038 7.0269 0.412292 7.0876 0.774004C7.69461 4.39232 7.24863 8.08527 5.79807 11.4535C2.98359 17.9885 2.65747 25.3101 4.87981 32.0695L5.36424 33.5431C5.45614 33.8227 5.71592 34 5.99496 34C6.06369 34 6.13361 33.9892 6.20248 33.9666C6.55091 33.852 6.7405 33.4767 6.62595 33.1283L6.14145 31.6547C4.97098 28.0946 4.5428 24.3711 4.84415 20.7005C8.88274 22.1676 12.2882 24.807 14.7421 28.3773V33.3357C14.7421 33.7024 15.0394 33.9998 15.4062 33.9998C15.7729 33.9998 16.0702 33.7024 16.0702 33.3357V28.8422H17.9296V33.3357C17.9296 33.7024 18.2269 33.9998 18.5937 33.9998C18.9604 33.9998 19.2577 33.7024 19.2577 33.3357V28.3773C21.7116 24.807 25.1172 22.1676 29.1557 20.7005C29.457 24.3711 29.0289 28.0946 27.8584 31.6548L27.3739 33.1283C27.2593 33.4767 27.4489 33.852 27.7973 33.9666C27.8662 33.9892 27.9361 34 28.0048 34C28.2838 34 28.5436 33.8227 28.6355 33.5431L29.12 32.0696C31.3424 25.3101 31.0162 17.9885 28.2018 11.4534C26.7513 8.08534 26.3053 4.39245 26.9123 0.774004Z" fill="white"/>
<path d="M16.9999 14.0615C17.3667 14.0615 17.664 13.7642 17.664 13.3975V12.8662C17.664 12.4995 17.3667 12.2021 16.9999 12.2021C16.6332 12.2021 16.3359 12.4995 16.3359 12.8662V13.3975C16.3359 13.7642 16.6332 14.0615 16.9999 14.0615Z" fill="white"/>
<path d="M33.3358 6.13143H31.3161C31.4565 5.87882 31.4199 5.55429 31.2054 5.3398C30.9461 5.08061 30.5256 5.08055 30.2663 5.3398L29.2802 6.32593C29.1557 6.45044 29.0857 6.61938 29.0857 6.79549C29.0857 6.9716 29.1557 7.14047 29.2802 7.26505L30.2663 8.25125C30.396 8.38088 30.566 8.44575 30.7359 8.44575C30.9058 8.44575 31.0758 8.38088 31.2054 8.25125C31.4199 8.03676 31.4565 7.71216 31.3161 7.45955H33.3358C33.7026 7.45955 33.9999 7.16219 33.9999 6.79549C33.9999 6.4288 33.7026 6.13143 33.3358 6.13143Z" fill="white"/>
<path d="M4.71981 7.26507C4.84433 7.14049 4.91432 6.97162 4.91432 6.79551C4.91432 6.6194 4.84433 6.45047 4.71981 6.32596L3.73368 5.33982C3.47436 5.08057 3.05388 5.08057 2.79456 5.33982C2.58007 5.55432 2.54355 5.87884 2.68386 6.13145H0.664185C0.297423 6.13145 0.00012207 6.42882 0.00012207 6.79551C0.00012207 7.16221 0.297423 7.45958 0.664185 7.45958H2.68386C2.54348 7.71219 2.58007 8.03678 2.79456 8.25127C2.92425 8.3809 3.09419 8.44578 3.26412 8.44578C3.43406 8.44578 3.60406 8.3809 3.73368 8.25127L4.71981 7.26507Z" fill="white"/>
<path d="M17.0086 16.3359C16.834 16.3359 16.6626 16.4069 16.5391 16.5305C16.4149 16.654 16.3445 16.8254 16.3445 17C16.3445 17.1746 16.4149 17.346 16.5391 17.4694C16.6626 17.5929 16.834 17.6641 17.0086 17.6641C17.1832 17.6641 17.3546 17.593 17.4781 17.4694C17.6016 17.346 17.6727 17.1746 17.6727 17C17.6727 16.8254 17.6016 16.654 17.4781 16.5305C17.3539 16.4069 17.1832 16.3359 17.0086 16.3359Z" fill="white"/>
</svg>
