<svg width="34" height="34" viewBox="0 0 34 34" fill="none" xmlns="http://www.w3.org/2000/svg">
<g clip-path="url(#clip0)">
<path d="M2.12495 25.4999C1.5002 25.4999 0.885366 25.3342 0.349866 25.0211C0.0126997 24.8228 -0.100634 24.3893 0.0962831 24.0507C0.294616 23.7135 0.7267 23.6002 1.0667 23.7971C1.3812 23.9813 1.75662 24.0833 2.12495 24.0833C3.29653 24.0833 4.24995 23.1299 4.24995 21.9583C4.24995 20.7867 3.29653 19.8333 2.12495 19.8333C1.75662 19.8333 1.3812 19.9353 1.0667 20.1195C0.7267 20.315 0.296033 20.203 0.0962831 19.8659C-0.100634 19.5287 0.0112831 19.0938 0.349866 18.8955C0.885366 18.5824 1.5002 18.4166 2.12495 18.4166C4.07712 18.4166 5.66662 20.0061 5.66662 21.9583C5.66662 23.9104 4.07712 25.4999 2.12495 25.4999Z" fill="white"/>
<path d="M13.4584 26.9166C12.2868 26.9166 11.3334 25.9632 11.3334 24.7916C11.3334 23.62 12.2868 22.6666 13.4584 22.6666C14.63 22.6666 15.5834 23.62 15.5834 24.7916C15.5834 25.9632 14.63 26.9166 13.4584 26.9166ZM13.4584 24.0833C13.0674 24.0833 12.75 24.4006 12.75 24.7916C12.75 25.1826 13.0674 25.5 13.4584 25.5C13.8494 25.5 14.1667 25.1826 14.1667 24.7916C14.1667 24.4006 13.8494 24.0833 13.4584 24.0833Z" fill="white"/>
<path d="M24.7916 28.3334C23.62 28.3334 22.6666 27.38 22.6666 26.2084C22.6666 25.0368 23.62 24.0834 24.7916 24.0834C25.9632 24.0834 26.9166 25.0368 26.9166 26.2084C26.9166 27.38 25.9632 28.3334 24.7916 28.3334ZM24.7916 25.5C24.4006 25.5 24.0833 25.8174 24.0833 26.2084C24.0833 26.5994 24.4006 26.9167 24.7916 26.9167C25.1826 26.9167 25.5 26.5994 25.5 26.2084C25.5 25.8174 25.1826 25.5 24.7916 25.5Z" fill="white"/>
<path d="M32.5833 24.0833C31.0207 24.0833 29.75 22.8125 29.75 21.25C29.75 19.6874 31.0207 18.4166 32.5833 18.4166C32.9177 18.4166 33.2307 18.4733 33.541 18.5895C33.9065 18.7269 34.0921 19.1349 33.9547 19.5018C33.8172 19.8673 33.4064 20.0515 33.0423 19.9155C32.1767 19.5925 31.1667 20.3036 31.1667 21.25C31.1667 22.1963 32.1753 22.906 33.0423 22.5845C33.4078 22.4499 33.8172 22.6312 33.9547 22.9981C34.0921 23.365 33.9065 23.773 33.541 23.9105C33.2307 24.0266 32.9177 24.0833 32.5833 24.0833Z" fill="white"/>
<path d="M30.4583 31.1667H3.54167C1.5895 31.1667 0 29.5772 0 27.625V14.875C0 13.7034 0.953417 12.75 2.125 12.75H7.40917C7.80017 12.75 8.1175 13.0673 8.1175 13.4583C8.1175 13.8493 7.80017 14.1667 7.40917 14.1667H2.125C1.734 14.1667 1.41667 14.484 1.41667 14.875V27.625C1.41667 28.7966 2.37008 29.75 3.54167 29.75H30.4583C31.6299 29.75 32.5833 28.7966 32.5833 27.625V14.875C32.5833 14.484 32.266 14.1667 31.875 14.1667H25.2733C24.8823 14.1667 24.565 13.8493 24.565 13.4583C24.565 13.0673 24.8809 12.75 25.2733 12.75H31.875C33.0466 12.75 34 13.7034 34 14.875V27.625C34 29.5772 32.4105 31.1667 30.4583 31.1667Z" fill="white"/>
<path d="M20.1592 14.1667H12.5233C12.1323 14.1667 11.815 13.8493 11.815 13.4583C11.815 13.0673 12.1309 12.75 12.5233 12.75H20.1592C20.5502 12.75 20.8675 13.0673 20.8675 13.4583C20.8675 13.8493 20.5502 14.1667 20.1592 14.1667Z" fill="white"/>
<path d="M22.5647 19.8334C21.6042 19.8334 20.7329 19.4679 20.1096 18.8035C19.6081 18.2708 19.0329 17.2919 19.1363 15.6613C19.7214 6.45297 27.0215 3.03597 27.3317 2.89572C27.6108 2.7668 27.9437 2.83622 28.1506 3.06713C28.3574 3.29663 28.3914 3.6338 28.2356 3.90013C26.1984 7.36955 25.942 11.6479 25.9618 15.3765C26.0851 16.7309 25.738 17.9634 24.9829 18.7893C24.3667 19.4622 23.5082 19.8334 22.5647 19.8334ZM25.9377 5.43863C23.8737 7.03097 20.9001 10.251 20.5502 15.752C20.4935 16.6416 20.6975 17.3613 21.1423 17.8345C21.8422 18.5782 23.222 18.6122 23.9374 17.833C24.4219 17.3046 24.6387 16.4546 24.548 15.4431C24.5296 12.2315 24.7067 8.67147 25.9377 5.43863Z" fill="white"/>
<path d="M9.81466 19.8334C8.85416 19.8334 7.98291 19.4679 7.35957 18.8035C6.85807 18.2708 6.28291 17.2919 6.38632 15.6613C6.97141 6.45297 14.2715 3.03597 14.5817 2.89572C14.8608 2.7668 15.1923 2.83622 15.4006 3.06713C15.6074 3.29663 15.6414 3.6338 15.4856 3.90013C13.4484 7.36955 13.192 11.6479 13.2118 15.3765C13.3351 16.7309 12.988 17.9634 12.2329 18.7893C11.6167 19.4622 10.7582 19.8334 9.81466 19.8334ZM13.1877 5.43863C11.1237 7.03097 8.15007 10.251 7.80016 15.752C7.74349 16.6416 7.94749 17.3613 8.39232 17.8345C9.09074 18.5782 10.472 18.6122 11.1874 17.833C11.6719 17.3046 11.8887 16.4546 11.798 15.4431C11.7796 12.2315 11.9567 8.67147 13.1877 5.43863Z" fill="white"/>
</g>
<defs>
<clipPath id="clip0">
<rect width="34" height="34" fill="white"/>
</clipPath>
</defs>
</svg>
