<svg width="34" height="34" viewBox="0 0 34 34" fill="none" xmlns="http://www.w3.org/2000/svg">
<g clip-path="url(#clip0)">
<path d="M3.54165 34C3.15065 34 2.83331 33.6827 2.83331 33.2917V0.708333C2.83331 0.317333 3.15065 0 3.54165 0C3.93264 0 4.24998 0.317333 4.24998 0.708333V33.2917C4.24998 33.6827 3.93264 34 3.54165 34Z" fill="white"/>
<path d="M30.4583 34C30.0673 34 29.75 33.6827 29.75 33.2917V0.708333C29.75 0.317333 30.0673 0 30.4583 0C30.8493 0 31.1667 0.317333 31.1667 0.708333V33.2917C31.1667 33.6827 30.8493 34 30.4583 34Z" fill="white"/>
<path d="M26.2083 34C25.8173 34 25.5 33.6827 25.5 33.2917V0.708333C25.5 0.317333 25.8173 0 26.2083 0C26.5993 0 26.9167 0.317333 26.9167 0.708333V33.2917C26.9167 33.6827 26.5993 34 26.2083 34Z" fill="white"/>
<path d="M7.79165 34C7.40065 34 7.08331 33.6827 7.08331 33.2917V0.708333C7.08331 0.317333 7.40065 0 7.79165 0C8.18265 0 8.49998 0.317333 8.49998 0.708333V33.2917C8.49998 33.6827 8.18265 34 7.79165 34Z" fill="white"/>
<path d="M20.5416 8.5C19.37 8.5 18.4166 7.54658 18.4166 6.375C18.4166 5.20342 19.37 4.25 20.5416 4.25C21.7132 4.25 22.6666 5.20342 22.6666 6.375C22.6666 7.54658 21.7132 8.5 20.5416 8.5ZM20.5416 5.66667C20.1506 5.66667 19.8333 5.984 19.8333 6.375C19.8333 6.766 20.1506 7.08333 20.5416 7.08333C20.9326 7.08333 21.25 6.766 21.25 6.375C21.25 5.984 20.9326 5.66667 20.5416 5.66667Z" fill="white"/>
<path d="M20.5416 25.5C19.37 25.5 18.4166 24.5466 18.4166 23.375C18.4166 22.2034 19.37 21.25 20.5416 21.25C21.7132 21.25 22.6666 22.2034 22.6666 23.375C22.6666 24.5466 21.7132 25.5 20.5416 25.5ZM20.5416 22.6667C20.1506 22.6667 19.8333 22.984 19.8333 23.375C19.8333 23.766 20.1506 24.0833 20.5416 24.0833C20.9326 24.0833 21.25 23.766 21.25 23.375C21.25 22.984 20.9326 22.6667 20.5416 22.6667Z" fill="white"/>
<path d="M13.4584 31.1666C12.2868 31.1666 11.3334 30.2132 11.3334 29.0416C11.3334 27.87 12.2868 26.9166 13.4584 26.9166C14.63 26.9166 15.5834 27.87 15.5834 29.0416C15.5834 30.2132 14.63 31.1666 13.4584 31.1666ZM13.4584 28.3333C13.0674 28.3333 12.75 28.6506 12.75 29.0416C12.75 29.4326 13.0674 29.75 13.4584 29.75C13.8494 29.75 14.1667 29.4326 14.1667 29.0416C14.1667 28.6506 13.8494 28.3333 13.4584 28.3333Z" fill="white"/>
<path d="M14.875 17C13.7034 17 12.75 16.0466 12.75 14.875C12.75 13.7034 13.7034 12.75 14.875 12.75C16.0466 12.75 17 13.7034 17 14.875C17 16.0466 16.0466 17 14.875 17ZM14.875 14.1667C14.484 14.1667 14.1667 14.484 14.1667 14.875C14.1667 15.266 14.484 15.5833 14.875 15.5833C15.266 15.5833 15.5833 15.266 15.5833 14.875C15.5833 14.484 15.266 14.1667 14.875 14.1667Z" fill="white"/>
<path d="M21.9583 14.875C21.5673 14.875 21.25 14.5577 21.25 14.1667C21.25 13.3861 20.6139 12.75 19.8333 12.75C19.4423 12.75 19.125 12.4327 19.125 12.0417C19.125 11.6507 19.4423 11.3334 19.8333 11.3334C21.3959 11.3334 22.6667 12.6041 22.6667 14.1667C22.6667 14.5577 22.3493 14.875 21.9583 14.875Z" fill="white"/>
<path d="M19.8333 32.5833C19.4423 32.5833 19.125 32.266 19.125 31.875C19.125 31.484 19.4423 31.1666 19.8333 31.1666C20.6139 31.1666 21.25 30.5305 21.25 29.75C21.25 29.359 21.5673 29.0416 21.9583 29.0416C22.3493 29.0416 22.6667 29.359 22.6667 29.75C22.6667 31.3125 21.3959 32.5833 19.8333 32.5833Z" fill="white"/>
<path d="M13.4583 24.0834C12.7018 24.0834 11.9893 23.7887 11.4552 23.2532C11.1789 22.977 11.1789 22.5279 11.4552 22.2516C11.7314 21.9754 12.1805 21.9754 12.4568 22.2516C12.9923 22.7871 13.9244 22.7871 14.4599 22.2516C14.7362 21.9754 15.1853 21.9754 15.4615 22.2516C15.7378 22.5279 15.7378 22.977 15.4615 23.2532C14.9274 23.7887 14.2148 24.0834 13.4583 24.0834Z" fill="white"/>
<path d="M12.0417 3.54167C11.6507 3.54167 11.3334 3.22433 11.3334 2.83333C11.3334 1.27075 12.6041 0 14.1667 0C14.5577 0 14.875 0.317333 14.875 0.708333C14.875 1.09933 14.5577 1.41667 14.1667 1.41667C13.3861 1.41667 12.75 2.05275 12.75 2.83333C12.75 3.22433 12.4327 3.54167 12.0417 3.54167Z" fill="white"/>
<path d="M12.75 9.91666C12.359 9.91666 12.0417 9.59933 12.0417 9.20833C12.0417 8.81733 12.359 8.5 12.75 8.5C13.5306 8.5 14.1667 7.86391 14.1667 7.08333C14.1667 6.69233 14.484 6.375 14.875 6.375C15.266 6.375 15.5833 6.69233 15.5833 7.08333C15.5833 8.64591 14.3126 9.91666 12.75 9.91666Z" fill="white"/>
</g>
<defs>
<clipPath id="clip0">
<rect width="34" height="34" fill="white"/>
</clipPath>
</defs>
</svg>
