<svg width="22" height="22" viewBox="0 0 22 22" fill="none" xmlns="http://www.w3.org/2000/svg">
<g clip-path="url(#clip0)">
<path d="M19.0782 2.14414C18.5325 1.64141 16.3239 0.0386766 11.3996 0.0171922C11.3996 0.0171922 5.59456 -0.330854 2.76722 2.26446C1.19456 3.83711 0.640265 6.14453 0.580109 9.00195C0.519953 11.8594 0.446906 17.2133 5.60745 18.6656H5.61175L5.60745 20.8828C5.60745 20.8828 5.57308 21.7809 6.16605 21.9613C6.87933 22.1848 7.30042 21.5016 7.98363 20.7668C8.35745 20.3629 8.87308 19.7699 9.26409 19.3187C12.7961 19.6152 15.5075 18.9363 15.8168 18.8375C16.5301 18.6055 20.5649 18.0898 21.218 12.7359C21.8969 7.21016 20.8914 3.7211 19.0782 2.14414ZM19.6754 12.332C19.1211 16.8008 15.8512 17.0844 15.2496 17.2777C14.9918 17.3594 12.6071 17.9523 9.61214 17.759C9.61214 17.759 7.37777 20.4531 6.68167 21.1535C6.45394 21.3812 6.20472 21.3598 6.20902 20.9086C6.20902 20.6121 6.2262 17.2262 6.2262 17.2262C6.22191 17.2262 6.22191 17.2262 6.2262 17.2262C1.85198 16.0145 2.1098 11.4555 2.15706 9.0707C2.20433 6.68594 2.6555 4.73086 3.98753 3.41602C6.38089 1.2461 11.3094 1.56836 11.3094 1.56836C15.4731 1.58555 17.4668 2.84024 17.9309 3.26133C19.4649 4.57617 20.2469 7.72149 19.6754 12.332ZM13.7028 8.86016C13.72 9.22969 13.1657 9.25547 13.1485 8.88594C13.1012 7.94063 12.6586 7.48086 11.7477 7.4293C11.3782 7.40781 11.4125 6.85352 11.7778 6.875C12.9766 6.93946 13.6426 7.62695 13.7028 8.86016ZM14.575 9.3457C14.618 7.52383 13.4793 6.09727 11.318 5.93828C10.9528 5.9125 10.9914 5.35821 11.3567 5.38399C13.8489 5.56446 15.1766 7.27891 15.1293 9.35859C15.125 9.72813 14.5664 9.71094 14.575 9.3457ZM16.5946 9.92148C16.5989 10.291 16.0403 10.2953 16.0403 9.92578C16.0145 6.42383 13.6813 4.51602 10.8496 4.49453C10.4844 4.49024 10.4844 3.94024 10.8496 3.94024C14.0164 3.96172 16.5645 6.14883 16.5946 9.92148ZM16.109 14.1367V14.1453C15.645 14.9617 14.777 15.8641 13.8832 15.5762L13.8746 15.5633C12.968 15.3098 10.8325 14.2098 9.48323 13.1355C8.78714 12.5855 8.1512 11.9367 7.66136 11.3137C7.21878 10.7594 6.77191 10.102 6.33792 9.31133C5.42269 7.65703 5.22073 6.91797 5.22073 6.91797C4.93284 6.02422 5.83089 5.15625 6.65159 4.69219H6.66019C7.0555 4.48594 7.43363 4.55469 7.68714 4.85977C7.68714 4.85977 8.21995 5.49571 8.44769 5.80938C8.66253 6.10156 8.95042 6.56992 9.10081 6.83203C9.36292 7.30039 9.19964 7.77735 8.94183 7.975L8.4262 8.3875C8.16409 8.59805 8.19847 8.98906 8.19847 8.98906C8.19847 8.98906 8.96331 11.8809 11.8207 12.6113C11.8207 12.6113 12.2118 12.6457 12.4223 12.3836L12.8348 11.868C13.0325 11.6102 13.5094 11.4469 13.9778 11.709C14.6094 12.0656 15.4129 12.6199 15.9457 13.1227C16.2465 13.3676 16.3153 13.7414 16.109 14.1367Z" fill="white"/>
</g>
<defs>
<clipPath id="clip0">
<rect width="22" height="22" fill="white"/>
</clipPath>
</defs>
</svg>
